<svg xmlns="http://www.w3.org/2000/svg" version="1.1" xmlns:xlink="http://www.w3.org/1999/xlink" width="512" height="512" x="0" y="0" viewBox="0 0 512 512" style="enable-background:new 0 0 512 512" xml:space="preserve" class=""><g transform="matrix(0.08000000000000007,0,0,0.08000000000000007,235.5200280761718,235.52000261967882)"><path d="m478.08 200.17-28.46-5a201.966 201.966 0 0 0-13.69-33.12l16.58-23.63c11.454-16.293 9.521-38.465-4.58-52.53L426.1 64.06c-14.065-14.101-36.237-16.034-52.53-4.58l-23.64 16.58a201.966 201.966 0 0 0-33.12-13.69l-5-28.46C308.368 14.306 291.344.006 271.44 0h-30.88c-19.92-.023-36.964 14.295-40.38 33.92l-5 28.45a201.755 201.755 0 0 0-33.12 13.69l-23.63-16.58c-16.293-11.454-38.465-9.521-52.53 4.58L64.06 85.9c-14.101 14.065-16.034 36.237-4.58 52.53l16.57 23.63a201.966 201.966 0 0 0-13.69 33.12l-28.45 5C14.289 203.6-.023 220.644 0 240.56v30.88c.002 19.911 14.308 36.942 33.92 40.38l28.45 5a201.755 201.755 0 0 0 13.69 33.12l-16.58 23.63c-11.454 16.293-9.521 38.465 4.58 52.53l21.84 21.84c14.065 14.101 36.237 16.034 52.53 4.58l23.63-16.57a201.668 201.668 0 0 0 33.12 13.69l5 28.46c3.424 19.617 20.467 33.924 40.38 33.9h30.88c19.916.023 36.96-14.289 40.38-33.91 1.243-7.072-3.483-13.812-10.555-15.055-7.072-1.243-13.812 3.483-15.055 10.555A15 15 0 0 1 271.44 486h-30.88a15 15 0 0 1-14.78-12.41l-6.39-36.43a13 13 0 0 0-9.39-10.31 175.625 175.625 0 0 1-42.24-17.46 12.998 12.998 0 0 0-14 .62l-30.25 21.22a15 15 0 0 1-19.22-1.68l-21.84-21.84a15 15 0 0 1-1.68-19.22L102 358.25a12.998 12.998 0 0 0 .62-14A175.778 175.778 0 0 1 85.14 302a13 13 0 0 0-10.31-9.44l-36.42-6.39A15 15 0 0 1 26 271.44v-30.88a15 15 0 0 1 12.41-14.77l36.43-6.39a13 13 0 0 0 10.3-9.4 175.863 175.863 0 0 1 17.47-42.25 12.998 12.998 0 0 0-.62-14l-21.22-30.24a15 15 0 0 1 1.68-19.22l21.84-21.84a15 15 0 0 1 19.22-1.68L153.75 102a12.998 12.998 0 0 0 14 .62A175.668 175.668 0 0 1 210 85.15a13 13 0 0 0 9.44-10.31l6.39-36.43A15 15 0 0 1 240.56 26h30.88a15 15 0 0 1 14.78 12.41l6.39 36.43A13 13 0 0 0 302 85.15a175.874 175.874 0 0 1 42.24 17.47 12.998 12.998 0 0 0 14-.62l30.25-21.22a15 15 0 0 1 19.22 1.68l21.84 21.84a15 15 0 0 1 1.68 19.22L410 153.76a12.998 12.998 0 0 0-.62 14A175.955 175.955 0 0 1 426.85 210a13 13 0 0 0 10.31 9.43l36.43 6.39A15 15 0 0 1 486 240.56v30.88a15 15 0 0 1-12.41 14.78c-7.072 1.243-11.798 7.983-10.555 15.055 1.243 7.072 7.983 11.798 15.055 10.555 19.624-3.421 33.938-20.47 33.91-40.39v-30.88c.003-19.914-14.305-36.951-33.92-40.39z" fill="#000000" opacity="1" data-original="#000000" class=""></path><path d="m475.07 391.53-83.16-85.69a53.23 53.23 0 0 1-14.91-42c5.968-68.273-44.539-128.457-112.812-134.425a124.057 124.057 0 0 0-21.788.015 24.317 24.317 0 0 0-15.08 6.9c-9.885 9.722-10.037 25.61-.34 35.52l35.83 36.53c7.282 7.417 7.173 19.332-.244 26.614l-.006.006-27.74 27.21c-7.421 7.275-19.333 7.158-26.61-.26l-35.83-36.53c-9.722-9.885-25.61-10.037-35.52-.34a24.309 24.309 0 0 0-7.2 14.95c-7.372 68.135 41.887 129.346 110.022 136.718 7.239.783 14.533.928 21.798.432a53.182 53.182 0 0 1 41.63 15.66l83.11 85.63c5.001 5.153 13.232 5.276 18.385.275 5.153-5.001 5.276-13.232.275-18.385l-83.16-85.68a79.22 79.22 0 0 0-62-23.45c-54.047 3.704-100.863-37.107-104.567-91.154a98.12 98.12 0 0 1 .117-14.946l34.36 35a44.525 44.525 0 0 0 31.57 13.43h.44A44.51 44.51 0 0 0 253 280.77l27.74-27.21c17.67-17.334 17.943-45.709.61-63.38l-34.36-35c54.058-3.531 100.744 37.429 104.276 91.487.325 4.981.27 9.98-.165 14.953a79.147 79.147 0 0 0 22.2 62.38l83.11 85.64c5.001 5.153 13.232 5.276 18.385.275 5.152-5.001 5.275-13.232.274-18.385z" fill="#000000" opacity="1" data-original="#000000" class=""></path></g></svg>