<svg xmlns="http://www.w3.org/2000/svg" version="1.1" xmlns:xlink="http://www.w3.org/1999/xlink" width="22px" height="22px" x="0" y="0" viewBox="0 0 24 24" style="enable-background:new 0 0 512 512" xml:space="preserve" fill-rule="evenodd" class=""><g><circle cx="12" cy="4.375" r="1.75" fill="#c9356e" opacity="1" data-original="#000000" class=""></circle><circle cx="21" cy="7.375" r="1.75" fill="#c9356e" opacity="1" data-original="#000000" class=""></circle><circle cx="3" cy="7.375" r="1.75" fill="#c9356e" opacity="1" data-original="#000000" class=""></circle><path d="M21.235 8.522a.75.75 0 0 0-1.24-.702l-2.226 2.024a2.25 2.25 0 0 1-3.62-.875l-1.447-3.857a.75.75 0 0 0-1.404 0L9.851 8.969a2.248 2.248 0 0 1-3.62.875L4.005 7.82a.75.75 0 0 0-1.24.702l1.678 8.392a2.75 2.75 0 0 0 2.697 2.211h9.72a2.75 2.75 0 0 0 2.697-2.211l1.678-8.392zM18 20.625H6a.75.75 0 0 0 0 1.5h12a.75.75 0 0 0 0-1.5z" fill="#c9356e" opacity="1" data-original="#000000" class=""></path></g></svg>